<svg xmlns="http://www.w3.org/2000/svg" viewBox="0 0 64 64" fill="none" color="#C9A227" stroke="currentColor" stroke-width="2.4" stroke-linecap="round" stroke-linejoin="round" role="img" aria-label="Castle">
  <path d="M10 55h44"/>
  <path d="M15 55V25h10v30"/>
  <path d="M39 55V25h10v30"/>
  <path d="M23 35h18v20H23z"/>
  <path d="M13 25v-9h5v4h4v-4h5v9"/>
  <path d="M37 25v-9h5v4h4v-4h5v9"/>
  <path d="M24 35v-9h5v4h6v-4h5v9"/>
  <path d="M29 55V45a3 3 0 0 1 6 0v10"/>
  <path d="M19 32h2"/>
  <path d="M43 32h2"/>
</svg>
