<svg xmlns="http://www.w3.org/2000/svg" viewBox="0 0 64 64" fill="none" color="#C9A227" stroke="currentColor" stroke-width="2.4" stroke-linecap="round" stroke-linejoin="round" role="img" aria-label="Imperial map">
  <path d="M12 15 25 9l14 6 13-6v40l-13 6-14-6-13 6V15z"/>
  <path d="M25 9v40"/>
  <path d="M39 15v40"/>
  <path d="M18 24c5-2 9-1 12 3"/>
  <path d="M34 35c5 0 8-3 12-7"/>
  <path d="M18 42h6"/>
  <path d="M44 18h3"/>
  <path d="M31 20l2 4 4 .5-3 3 .8 4-3.8-2-3.8 2 .8-4-3-3 4-.5 2-4z"/>
</svg>
